<?xml version="1.0" encoding="UTF-8" standalone="no"?>
<!-- Created with Inkscape (http://www.inkscape.org/) -->

<svg
   xmlns:dc="http://purl.org/dc/elements/1.1/"
   xmlns:cc="http://creativecommons.org/ns#"
   xmlns:rdf="http://www.w3.org/1999/02/22-rdf-syntax-ns#"
   xmlns:svg="http://www.w3.org/2000/svg"
   xmlns="http://www.w3.org/2000/svg"
   xmlns:sodipodi="http://sodipodi.sourceforge.net/DTD/sodipodi-0.dtd"
   xmlns:inkscape="http://www.inkscape.org/namespaces/inkscape"
   width="10"
   height="1700"
   id="svg3482"
   version="1.1"
   inkscape:version="0.48.2 r9819"
   sodipodi:docname="obstacles.svg">
  <defs
     id="defs3484" />
  <sodipodi:namedview
     id="base"
     pagecolor="#000000"
     bordercolor="#666666"
     borderopacity="1.0"
     inkscape:pageopacity="1"
     inkscape:pageshadow="2"
     inkscape:zoom="11.313709"
     inkscape:cx="27.319495"
     inkscape:cy="20.889587"
     inkscape:document-units="px"
     inkscape:current-layer="layer3"
     showgrid="true"
     inkscape:snap-grids="false"
     inkscape:window-width="1440"
     inkscape:window-height="847"
     inkscape:window-x="0"
     inkscape:window-y="24"
     inkscape:window-maximized="1"
     showguides="true"
     inkscape:guide-bbox="true">
    <inkscape:grid
       type="xygrid"
       id="grid3490"
       empspacing="5"
       visible="true"
       enabled="true"
       snapvisiblegridlinesonly="true" />
  </sodipodi:namedview>
  <metadata
     id="metadata3487">
    <rdf:RDF>
      <cc:Work
         rdf:about="">
        <dc:format>image/svg+xml</dc:format>
        <dc:type
           rdf:resource="http://purl.org/dc/dcmitype/StillImage" />
      </cc:Work>
    </rdf:RDF>
  </metadata>
  <g
     inkscape:label="Layer 1"
     inkscape:groupmode="layer"
     id="layer1"
     transform="translate(0,647.6378)"
     style="display:inline">
    <path
       style="fill:#cccccc;fill-opacity:1;stroke:none"
       d="m 4.4960937,1051.3778 1,0 -0.4921875,-1 z"
       id="path3492"
       inkscape:connector-curvature="0"
       sodipodi:nodetypes="cccc" />
  </g>
  <g
     inkscape:groupmode="layer"
     id="layer3"
     inkscape:label="obstacles"
     transform="translate(0,1683)"
     style="display:inline">
    <path
       style="fill:#cccccc;fill-opacity:1;stroke:none;display:inline"
       d="m 15.642947,-0.63295842 1.168574,-4.16205668 1.13656,0.08005 1.744861,2.7693397 -1.824899,2.41717584 -0.22411,1.13656506 -0.421699,1.134319 -0.593702,-1.96813086 z"
       id="obstacle01"
       inkscape:connector-curvature="0"
       sodipodi:nodetypes="ccccccccc" />
    <path
       style="fill:#cccccc;fill-opacity:1;stroke:none;display:inline"
       d="m 15.637069,-9.2372121 0.02264,-0.113156 0.565965,-1.9695929 3.395786,-0.837663 1.313037,2.2186533 -1.10929,3.0108936 -3.033569,0.5660007 0.79235,-2.2185807 z"
       id="path2990"
       inkscape:connector-curvature="0" />
    <path
       sodipodi:nodetypes="ccccccccc"
       inkscape:connector-curvature="0"
       id="path2992"
       d="m 16.148583,-16.211205 -0.06579,-5.851643 2.284979,1.036722 1.507856,2.095989 -1.34336,3.046852 -0.583647,2.10132 -0.750555,0.419503 -0.346369,-1.638517 z"
       style="fill:#cccccc;fill-opacity:1;stroke:none;display:inline" />
    <path
       sodipodi:nodetypes="ccccccccc"
       inkscape:connector-curvature="0"
       id="path3006"
       d="m 23.27639,-10.11947 0.353586,-2.441561 1.408222,1.619473 2.288188,-0.490587 -1.8249,2.4171476 -0.22411,1.136565 -0.421698,1.134319 -0.593702,-1.968143 z"
       style="fill:#cccccc;fill-opacity:1;stroke:none;display:inline" />
    <path
       sodipodi:nodetypes="cccccccccc"
       inkscape:connector-curvature="0"
       id="path3008"
       d="m 21.281395,-16.550104 0.05112,-0.0905 2.012459,-5.027065 2.130355,1.749696 0.537239,4.253357 -0.838657,2.493296 -0.934074,-1.733154 -2.345573,-0.307393 0.221312,-0.871658 z"
       style="fill:#cccccc;fill-opacity:1;stroke:none;display:inline" />
    <path
       style="fill:#cccccc;fill-opacity:1;stroke:none"
       d="m 21.816236,-1.1921551 0.387093,-1.6243604 0.709279,-1.7898499 0.962087,-0.9016726 1.246173,2.8213605 0.592865,2.34248691 -1.355435,1.95909819 -0.549974,1.5450518 -1.08776,-3.14707122 z"
       id="path3027"
       inkscape:connector-curvature="0" />
    <path
       style="fill:#cccccc;fill-opacity:1;stroke:none"
       d="m 30.09375,-11.40625 0.8125,1.25 1.3125,0.4375 -1.03125,1.0625 -0.875,-0.031 -0.75,0.8125 1.28125,0.375 0.96875,0.9688 0.75,-1.3438 1,0.4063 0.96875,-1.7188 0.59375,0.125 -0.9375,-1.4687 0.4375,-1.4375 -2.65625,-0.9063 z"
       id="path3029"
       inkscape:connector-curvature="0" />
  </g>
</svg>
